<svg xmlns="http://www.w3.org/2000/svg" xmlns:xlink="http://www.w3.org/1999/xlink" xml:space="preserve" width="6.82666in" height="6.82666in" style="shape-rendering:geometricPrecision; text-rendering:geometricPrecision; image-rendering:optimizeQuality; fill-rule:evenodd; clip-rule:evenodd" viewBox="0 0 6.82666 6.82666">
 <defs fill="#000000">
  <style type="text/css">
   <![CDATA[
    .fil2 {fill:none}
    .fil1 {fill:#424242}
    .fil0 {fill:#50ae48}
   ]]>
  </style>
 </defs>
 <g id="Layer_x0020_1">
  <metadata id="CorelCorpID_0Corel-Layer" fill="#000000"/>
  <path class="fil0" d="M5.97333 3.46667l0 1.80337c0,0.386819 -0.316476,0.703295 -0.703295,0.703295l-1.80337 0 0 -2.50666 2.50666 0zm-1.25333 0.714417c0.0828543,0 0.150024,0.0671654 0.150024,0.150016 0,0.0828543 -0.0671693,0.150024 -0.150024,0.150024 -0.0828543,0 -0.150024,-0.0671693 -0.150024,-0.150024 0,-0.0828504 0.0671693,-0.150016 0.150024,-0.150016zm0 0.777783c0.0828543,0 0.150024,0.0671693 0.150024,0.150024 0,0.0828504 -0.0671693,0.150016 -0.150024,0.150016 -0.0828543,0 -0.150024,-0.0671654 -0.150024,-0.150016 0,-0.0828543 0.0671693,-0.150024 0.150024,-0.150024zm-0.666673 -0.345539l1.33335 0 0 0.213339 -1.33335 0 0 -0.213339z" fill="#000000"/>
  <path class="fil1" d="M3.46667 0.853331l1.80337 0c0.386819,0 0.703295,0.316484 0.703295,0.703295l0 1.80337 -2.50666 0 0 -2.50667zm0.586657 1.14667l1.33335 0 0 0.213339 -1.33335 0 0 -0.213339z" fill="#000000"/>
  <path class="fil1" d="M3.36 3.46667l0 2.50666 -1.80337 0c-0.386811,0 -0.703295,-0.316476 -0.703295,-0.703295l0 -1.80337 2.50667 0zm-0.706508 0.857339l-0.395992 0.395992 0.395992 0.395992 -0.150835 0.150835 -0.395992 -0.395992 -0.395992 0.395992 -0.150835 -0.150835 0.395992 -0.395992 -0.395992 -0.395992 0.150835 -0.150835 0.395992 0.395992 0.395992 -0.395992 0.150835 0.150835z" fill="#000000"/>
  <path class="fil0" d="M1.54898 0.853331l1.81102 0 0 2.50667 -2.50667 0 0 -1.81102c0,-0.38261 0.313043,-0.695654 0.695654,-0.695654zm0.66435 0.586661l0 0.560004 0.560004 0 0 0.213339 -0.560004 0 0 0.560004 -0.213339 0 0 -0.560004 -0.560004 0 0 -0.213339 0.560004 0 0 -0.560004 0.213339 0z" fill="#000000"/>
 </g>
 <rect class="fil2" width="6.82666" height="6.82666" fill="#000000"/>
</svg>